<?xml version="1.0" standalone="no"?>
<!DOCTYPE svg PUBLIC "-//W3C//DTD SVG 20010904//EN"
 "http://www.w3.org/TR/2001/REC-SVG-20010904/DTD/svg10.dtd">
<svg version="1.0" xmlns="http://www.w3.org/2000/svg"
 width="225.000000pt" height="225.000000pt" viewBox="0 0 225.000000 225.000000"
 preserveAspectRatio="xMidYMid meet">
<metadata>
Created by potrace 1.14, written by Peter Selinger 2001-2017
</metadata>
<g transform="translate(0.000000,225.000000) scale(0.100000,-0.100000)"
fill="#000000" stroke="none">
<path d="M1068 2241 c-71 -23 -128 -100 -128 -172 0 -31 -4 -36 -48 -53 -26
-10 -77 -39 -114 -63 -176 -115 -277 -314 -278 -543 0 -102 -15 -230 -37 -320
-24 -99 -75 -201 -154 -308 -98 -132 -113 -168 -114 -265 0 -76 1 -79 33 -108
l32 -29 864 0 c843 0 864 0 888 20 38 29 52 72 45 139 -7 78 -31 128 -112 236
-136 181 -180 318 -195 610 -9 186 -22 241 -76 346 -64 123 -193 238 -316 284
-45 17 -48 20 -48 53 0 52 -36 119 -80 148 -41 27 -118 39 -162 25z"/>
<path d="M880 220 c0 -67 60 -154 134 -193 57 -30 165 -30 222 0 74 39 134
126 134 193 l0 30 -245 0 -245 0 0 -30z"/>
</g>
</svg>
