<?xml version="1.0" standalone="no"?>
<!DOCTYPE svg PUBLIC "-//W3C//DTD SVG 20010904//EN"
 "http://www.w3.org/TR/2001/REC-SVG-20010904/DTD/svg10.dtd">
<svg version="1.0" xmlns="http://www.w3.org/2000/svg"
 width="512.000000pt" height="512.000000pt" viewBox="0 0 512.000000 512.000000"
 preserveAspectRatio="xMidYMid meet">
<metadata>
Created by potrace 1.14, written by Peter Selinger 2001-2017
</metadata>
<g transform="translate(0.000000,512.000000) scale(0.100000,-0.100000)"
fill="#000000" stroke="none">
<path d="M2367 4914 c-1 -1 -49 -5 -107 -8 -900 -58 -1561 -390 -1933 -973
-38 -59 -117 -213 -158 -308 -44 -103 -104 -328 -125 -474 -4 -25 -8 -54 -10
-63 -15 -86 -22 -389 -10 -473 3 -22 8 -60 11 -85 4 -25 17 -87 31 -138 90
-347 312 -675 632 -933 82 -66 269 -193 338 -228 77 -40 95 -79 90 -198 -10
-230 -178 -530 -395 -703 -39 -31 -44 -40 -48 -85 -5 -44 -2 -55 21 -82 28
-34 78 -55 111 -49 11 2 47 7 80 10 101 12 283 55 420 101 115 38 167 60 294
123 42 21 181 111 199 129 7 7 16 13 20 13 11 0 144 130 193 190 26 30 66 88
90 128 41 70 45 73 74 68 133 -23 621 -24 741 -2 10 2 46 7 79 10 74 9 131 18
263 42 203 38 488 133 687 229 176 85 399 227 496 316 14 13 48 44 75 69 122
113 222 236 311 385 129 215 206 446 231 697 9 83 7 332 -2 411 -3 26 -8 67
-11 92 -4 38 -47 256 -60 305 -2 8 -15 49 -28 90 -230 701 -785 1156 -1617
1324 -74 15 -89 18 -180 31 -204 30 -309 37 -578 39 -122 2 -223 2 -225 0z"/>
</g>
</svg>
